<svg xmlns="http://www.w3.org/2000/svg" viewBox="0 0 32 32" fill="none">
  <!-- Background circle -->
  <circle cx="16" cy="16" r="15" fill="#FAF7F2"/>
  <!-- Stylized "m" for mise -->
  <path d="M8 22V14C8 12.5 9 11 11 11C13 11 14 12.5 14 14V22M14 14C14 12.5 15 11 17 11C19 11 20 12.5 20 14V22M20 14C20 12.5 21 11 23 11C25 11 26 12.5 26 14V22" stroke="#8B9A7D" stroke-width="2.5" stroke-linecap="round" stroke-linejoin="round"/>
  <!-- Small leaf accent -->
  <path d="M6 10C6 10 7 7 10 7C10 10 7 11 6 10Z" fill="#8B9A7D"/>
</svg>
